<?xml version="1.0" encoding="UTF-8" standalone="no"?>
<svg
   xmlns:dc="http://purl.org/dc/elements/1.1/"
   xmlns:cc="http://creativecommons.org/ns#"
   xmlns:rdf="http://www.w3.org/1999/02/22-rdf-syntax-ns#"
   xmlns:svg="http://www.w3.org/2000/svg"
   xmlns="http://www.w3.org/2000/svg"
   xmlns:sodipodi="http://sodipodi.sourceforge.net/DTD/sodipodi-0.dtd"
   xmlns:inkscape="http://www.inkscape.org/namespaces/inkscape"
   inkscape:export-ydpi="576"
   inkscape:export-xdpi="576"
   inkscape:export-filename="D:\Project Real\DESEMBER\export solid\png\07 - Science.png"
   width="64pt"
   height="64pt"
   viewBox="0 0 22.577778 22.577778"
   version="1.1"
   id="svg831"
   inkscape:version="1.0 (4035a4fb49, 2020-05-01)"
   sodipodi:docname="08 - Math.svg">
  <defs
     id="defs825">
    <pattern
       id="EMFhbasepattern"
       patternUnits="userSpaceOnUse"
       width="6"
       height="6"
       x="0"
       y="0" />
    <pattern
       id="EMFhbasepattern-9"
       patternUnits="userSpaceOnUse"
       width="6"
       height="6"
       x="0"
       y="0" />
    <pattern
       id="EMFhbasepattern-0"
       patternUnits="userSpaceOnUse"
       width="6"
       height="6"
       x="0"
       y="0" />
    <pattern
       id="EMFhbasepattern-7"
       patternUnits="userSpaceOnUse"
       width="6"
       height="6"
       x="0"
       y="0" />
    <pattern
       id="EMFhbasepattern-2"
       patternUnits="userSpaceOnUse"
       width="6"
       height="6"
       x="0"
       y="0" />
    <pattern
       id="EMFhbasepattern-98"
       patternUnits="userSpaceOnUse"
       width="6"
       height="6"
       x="0"
       y="0" />
    <pattern
       id="EMFhbasepattern-6"
       patternUnits="userSpaceOnUse"
       width="6"
       height="6"
       x="0"
       y="0" />
    <pattern
       id="EMFhbasepattern-01"
       patternUnits="userSpaceOnUse"
       width="6"
       height="6"
       x="0"
       y="0" />
    <pattern
       id="EMFhbasepattern-07"
       patternUnits="userSpaceOnUse"
       width="6"
       height="6"
       x="0"
       y="0" />
    <pattern
       id="EMFhbasepattern-8"
       patternUnits="userSpaceOnUse"
       width="6"
       height="6"
       x="0"
       y="0" />
    <pattern
       id="EMFhbasepattern-4"
       patternUnits="userSpaceOnUse"
       width="6"
       height="6"
       x="0"
       y="0" />
    <pattern
       id="EMFhbasepattern-40"
       patternUnits="userSpaceOnUse"
       width="6"
       height="6"
       x="0"
       y="0" />
    <pattern
       id="EMFhbasepattern-08"
       patternUnits="userSpaceOnUse"
       width="6"
       height="6"
       x="0"
       y="0" />
    <pattern
       id="EMFhbasepattern-04"
       patternUnits="userSpaceOnUse"
       width="6"
       height="6"
       x="0"
       y="0" />
    <pattern
       id="EMFhbasepattern-014"
       patternUnits="userSpaceOnUse"
       width="6"
       height="6"
       x="0"
       y="0" />
    <pattern
       id="EMFhbasepattern-27"
       patternUnits="userSpaceOnUse"
       width="6"
       height="6"
       x="0"
       y="0" />
    <pattern
       id="EMFhbasepattern-09"
       patternUnits="userSpaceOnUse"
       width="6"
       height="6"
       x="0"
       y="0" />
    <pattern
       id="EMFhbasepattern-5"
       patternUnits="userSpaceOnUse"
       width="6"
       height="6"
       x="0"
       y="0" />
    <pattern
       id="EMFhbasepattern-018"
       patternUnits="userSpaceOnUse"
       width="6"
       height="6"
       x="0"
       y="0" />
  </defs>
  <sodipodi:namedview
     id="base"
     pagecolor="#ffffff"
     bordercolor="#666666"
     borderopacity="1.0"
     inkscape:pageopacity="0.0"
     inkscape:pageshadow="2"
     inkscape:zoom="6.2578125"
     inkscape:cx="42.666667"
     inkscape:cy="42.666667"
     inkscape:document-units="pt"
     inkscape:current-layer="layer1"
     showgrid="false"
     units="pt"
     inkscape:window-width="1366"
     inkscape:window-height="706"
     inkscape:window-x="-8"
     inkscape:window-y="-8"
     inkscape:window-maximized="1"
     inkscape:pagecheckerboard="true"
     inkscape:showpageshadow="false"
     inkscape:object-paths="true"
     inkscape:snap-intersection-paths="true"
     inkscape:snap-smooth-nodes="true"
     inkscape:snap-midpoints="true"
     showguides="true"
     inkscape:snap-bbox="true"
     inkscape:bbox-nodes="true"
     inkscape:snap-nodes="false"
     inkscape:snap-global="true"
     inkscape:document-rotation="0">
    <inkscape:grid
       type="xygrid"
       id="grid1378" />
    <sodipodi:guide
       position="0.97013831,21.607643"
       orientation="78.000048,0"
       id="guide1380"
       inkscape:locked="false" />
    <sodipodi:guide
       position="0.97013831,0.97013129"
       orientation="0,78.000005"
       id="guide1382"
       inkscape:locked="false" />
    <sodipodi:guide
       position="21.607639,0.97013129"
       orientation="-78.000048,0"
       id="guide1384"
       inkscape:locked="false" />
    <sodipodi:guide
       position="21.607639,21.607643"
       orientation="0,-78.000005"
       id="guide1386"
       inkscape:locked="false" />
  </sodipodi:namedview>
  <metadata
     id="metadata828">
    <rdf:RDF>
      <cc:Work
         rdf:about="">
        <dc:format>image/svg+xml</dc:format>
        <dc:type
           rdf:resource="http://purl.org/dc/dcmitype/StillImage" />
        <dc:title></dc:title>
      </cc:Work>
    </rdf:RDF>
  </metadata>
  <g
     inkscape:label="Icon"
     inkscape:groupmode="layer"
     id="layer1"
     transform="translate(0,-274.42223)">
    <path
       sodipodi:nodetypes="scccccccssccccsccccccccccccccccccccccccccccccccccccccccscccccccscccccssccscccscccscccscccccccccccccccssccscccscccsscccssssssccsccscsssssscccsccccccssccccccssccccccccsccc"
       d="m 6.6238102,276.05581 c -1.0658883,6.7e-4 -2.130039,0.0927 -3.1159362,0.27435 L 3.083358,288.4695 h 2.0250641 c 0.1838241,7.3e-4 0.3322561,0.15033 0.3315537,0.33415 v 2.23505 c 1.6391758,0.0976 3.28169,0.48128 5.5167602,1.49458 0.0027,-5.57943 0.03106,-10.32829 0.01302,-15.89888 -1.2989849,-0.37811 -2.816633,-0.57948 -4.3459277,-0.57859 z m 9.4232168,0.008 c -1.544107,-0.005 -3.09294,0.18306 -4.411586,0.5617 0.0094,5.31513 -9.99e-4,10.34991 -0.01302,15.91838 3.514222,-1.59133 6.146089,-1.6296 7.97479,-1.49459 l -0.598743,-14.73065 c -0.937387,-0.16679 -1.943123,-0.25169 -2.951462,-0.25484 z m -3.093116,19.1711 c 2.837575,-1.51363 5.532947,-1.44274 8.292042,-1.20009 0.199362,0.0174 0.368826,-0.14393 0.361454,-0.34391 l -0.665704,-16.64455 c -0.0058,-0.13767 -0.09566,-0.2576 -0.226235,-0.30163 -0.332141,-0.11046 -0.683049,-0.207 -1.047313,-0.2906 L 20.276,291.35855 c 0.0089,0.201 -0.16101,0.36398 -0.361454,0.3465 -1.870977,-0.16111 -4.628539,-0.23278 -8.515031,1.64411 0.229998,0.0242 0.493384,0.0969 0.730717,0.23598 l -6.3e-5,-1e-5 c 9.99e-4,0 0.0016,0 0.0026,0 0.513503,0.30116 0.826361,0.85454 0.821078,1.45071 z m -8.079274,-3.66466 c -0.7988445,-0.85326 -1.5874039,-1.69688 -2.3823707,-2.54807 -0.060435,-0.0701 -0.089167,-0.15048 -0.087114,-0.23306 l 0.4310165,-12.31617 c -0.3366464,0.0796 -0.6628246,0.16912 -0.9712518,0.27173 -0.1316031,0.0432 -0.2227345,0.16329 -0.2288358,0.30165 l -0.66570322,16.64455 c -0.007523,0.20083 0.16329712,0.36247 0.36340762,0.3439 2.759635,-0.24271 5.4538813,-0.31388 8.2920427,1.20073 l 6.658e-4,-0.21258 c 0,-0.59606 0.318163,-1.1489 0.8353819,-1.44518 0.233239,-0.13364 0.491112,-0.20312 0.699508,-0.23663 -2.6184061,-1.24047 -4.2788643,-1.6009 -6.0608268,-1.6701 -0.08053,-0.004 -0.157226,-0.0355 -0.2259202,-0.10077 z m 8.077909,-13.50974 c 0.06587,-3.2e-4 0.130345,0.0189 0.185279,0.0552 l 3.995523,2.66347 c 0.272317,0.18308 0.143499,0.60807 -0.184628,0.60914 h -3.994872 c -0.184078,-3.6e-4 -0.332906,-0.15007 -0.332204,-0.33414 v -2.66087 c -4.9e-5,-0.17504 0.135468,-0.32022 0.310099,-0.33221 0.0069,-3.2e-4 0.01388,-6.6e-4 0.02081,-6.6e-4 z m -8.0833612,0.40241 h 0.3341534 c 0.1838208,6.7e-4 0.3322494,0.15034 0.3315504,0.33416 v 1.66296 h 0.3341533 c 0.1838275,7.2e-4 0.3322694,0.15032 0.3315504,0.33415 -3.328e-4,0.18307 -0.1484818,0.33149 -0.3315504,0.33221 H 5.2033382 4.5376344 c -0.1833215,-3.7e-4 -0.3318466,-0.14889 -0.3322027,-0.33221 -6.658e-4,-0.18409 0.148119,-0.33379 0.3322027,-0.33415 h 0.3315504 v -1.33141 c -0.1828155,-6.7e-4 -0.3308381,-0.14873 -0.3315504,-0.33155 -6.658e-4,-0.18384 0.147723,-0.33343 0.3315504,-0.33416 z m 8.4188122,0.55195 v 1.70782 h 2.5627 z m -4.422639,2.44372 c 0.1838307,7.3e-4 0.3322727,0.15032 0.3315538,0.33416 v 0.33155 h 0.33415 c 0.1840837,3.6e-4 0.3329218,0.15007 0.3322028,0.33415 -6.657e-4,0.18307 -0.1491343,0.33119 -0.3322028,0.33156 h -0.33415 v 0.33414 c -6.658e-4,0.18282 -0.1487382,0.33085 -0.3315538,0.33155 -0.1838275,7.3e-4 -0.3334344,-0.14772 -0.33415,-0.33155 v -0.33414 H 8.1996543 c -0.1838275,7.3e-4 -0.3334345,-0.14773 -0.33415,-0.33156 -6.658e-4,-0.18485 0.1493039,-0.33487 0.33415,-0.33415 H 8.531208 v -0.33155 c -6.658e-4,-0.18484 0.149304,-0.33488 0.33415,-0.33416 z m 6.751953,1.26121 h 2.663465 c 0.183061,7.3e-4 0.331181,0.14913 0.331553,0.33219 v 2.66347 c -6.65e-4,0.18281 -0.148745,0.33081 -0.331553,0.33156 h -2.663465 c -0.183823,6.9e-4 -0.333417,-0.14773 -0.334153,-0.33156 v -2.66347 c 3.33e-4,-0.18407 0.150077,-0.3329 0.334153,-0.33219 z m 0.331551,0.66635 v 1.99516 h 1.997764 v -1.99516 z m -10.7468253,0.40241 c 0.547548,0 0.9998571,0.45231 0.9998571,0.99985 0,0.27739 -0.1426735,0.50463 -0.302296,0.67091 -0.130255,0.13569 -0.2799451,0.23188 -0.4251684,0.32635 h 0.3933111 c 0.184846,-7.4e-4 0.3348756,0.14931 0.3341533,0.33415 -3.328e-4,0.18408 -0.1500696,0.33292 -0.3341533,0.3322 H 4.5382834 c -0.1840737,7.1e-4 -0.3337737,-0.14813 -0.3341499,-0.3322 0,-0.15256 0.071823,-0.26729 0.1378206,-0.34391 0.065998,-0.0766 0.1371483,-0.13151 0.211281,-0.18397 0.1482656,-0.10505 0.3159564,-0.19639 0.4739246,-0.29515 0.1579681,-0.0987 0.3033012,-0.20337 0.3933111,-0.29709 0.090027,-0.0938 0.1157193,-0.15581 0.1157193,-0.21129 0,-0.18777 -0.146385,-0.33415 -0.3341534,-0.33415 -0.1877684,0 -0.3315505,0.14638 -0.3315505,0.33415 -6.656e-4,0.18307 -0.1491342,0.3312 -0.3322028,0.33156 -0.1838273,7.3e-4 -0.3334343,-0.14773 -0.3341499,-0.33156 0,-0.54754 0.4503552,-0.99985 0.9979032,-0.99985 z m 9.0832183,3.25831 c 0.915199,0 1.663603,0.74841 1.663607,1.66361 6e-6,0.91521 -0.748401,1.66361 -1.663607,1.66361 -0.915209,0 -1.663617,-0.7484 -1.663611,-1.66361 4e-6,-0.9152 0.748408,-1.66361 1.663611,-1.66361 z m -6.4197507,0.40436 h 1.3314075 c 0.1838273,-7.4e-4 0.3334343,0.14772 0.33415,0.33156 6.656e-4,0.18484 -0.1493041,0.33487 -0.33415,0.33414 H 7.8655043 c -0.1840839,-3.7e-4 -0.3329218,-0.15007 -0.3322029,-0.33414 6.656e-4,-0.18307 0.1491342,-0.3312 0.3322029,-0.33156 z m 6.4197507,0.26134 c -0.55543,0 -0.997254,0.44248 -0.997258,0.99791 -3e-6,0.55543 0.441824,0.99985 0.997258,0.99985 0.55543,0 0.997906,-0.44442 0.997903,-0.99985 0,-0.55543 -0.442476,-0.99791 -0.997903,-0.99791 z m -10.7793316,1.42308 1.2676963,1.35352 v -1.35352 z m 0.8158765,2.99392 c 1.7376366,0.0197 3.5050868,0.36812 5.2950777,1.06682 0.169881,0.0678 0.2532037,0.26002 0.1865768,0.43037 -0.06679,0.17055 -0.2588223,0.25509 -0.429715,0.18918 -2.2958493,-0.89614 -4.5230378,-1.18612 -6.7031977,-0.93615 -0.1825558,0.021 -0.3475538,-0.10995 -0.3686067,-0.29255 -0.020936,-0.18255 0.1100002,-0.34755 0.2925468,-0.3686 0.5723887,-0.0657 1.148106,-0.0956 1.7273181,-0.0891 z m 14.1351541,0 c 0.579212,-0.006 1.155552,0.0234 1.72797,0.0891 0.182284,0.0214 0.312862,0.18628 0.291896,0.3686 -0.02107,0.18226 -0.185639,0.31311 -0.367958,0.29255 -2.180158,-0.24997 -4.407345,0.04 -6.703195,0.93615 -0.171631,0.0677 -0.365538,-0.0172 -0.432317,-0.18918 -0.06635,-0.17108 0.01828,-0.36358 0.189179,-0.43037 1.789961,-0.69872 3.556791,-1.04704 5.294425,-1.06682 z m -6.662919,2.03027 c -0.15466,-0.0907 -0.32681,-0.13629 -0.499264,-0.13717 -0.172451,-8.7e-4 -0.345707,0.0428 -0.501212,0.13197 -0.311083,0.1782 -0.503179,0.50938 -0.503179,0.86788 l -6.66e-4,0.34391 c 0.666087,-3e-5 1.332343,-4e-5 1.998413,0 l -6.65e-4,-0.33285 c 0.0036,-0.35975 -0.184175,-0.69237 -0.493427,-0.87374 z"
       style="color:#000000;font-style:normal;font-variant:normal;font-weight:normal;font-stretch:normal;font-size:medium;line-height:normal;font-family:sans-serif;font-variant-ligatures:normal;font-variant-position:normal;font-variant-caps:normal;font-variant-numeric:normal;font-variant-alternates:normal;font-variant-east-asian:normal;font-feature-settings:normal;font-variation-settings:normal;text-indent:0;text-align:start;text-decoration:none;text-decoration-line:none;text-decoration-style:solid;text-decoration-color:#000000;letter-spacing:normal;word-spacing:normal;text-transform:none;writing-mode:lr-tb;direction:ltr;text-orientation:mixed;dominant-baseline:auto;baseline-shift:baseline;text-anchor:start;white-space:normal;shape-padding:0;shape-margin:0;inline-size:0;clip-rule:nonzero;display:inline;overflow:visible;visibility:visible;isolation:auto;mix-blend-mode:normal;color-interpolation:sRGB;color-interpolation-filters:linearRGB;solid-color:#000000;solid-opacity:1;vector-effect:none;fill:#000000;fill-opacity:1;fill-rule:nonzero;stroke:none;stroke-width:0.529167;stroke-linecap:round;stroke-linejoin:round;stroke-miterlimit:1.5;stroke-dasharray:none;stroke-dashoffset:0;stroke-opacity:1;color-rendering:auto;image-rendering:auto;shape-rendering:auto;text-rendering:auto;enable-background:accumulate;stop-color:#000000"
       id="path1526" />
  </g>
</svg>
